<svg data-v-0dd9719b="" version="1.0" xmlns="http://www.w3.org/2000/svg" xmlns:xlink="http://www.w3.org/1999/xlink" width="100%" height="100%" viewBox="0 0 340.000000 250.000000" preserveAspectRatio="xMidYMid meet" color-interpolation-filters="sRGB" style="margin: auto;"> <rect data-v-0dd9719b="" x="0" y="0" width="100%" height="100%" fill="#fff" fill-opacity="1" class="background"></rect> <rect data-v-0dd9719b="" x="0" y="0" width="100%" height="100%" fill="url(#watermark)" fill-opacity="1" class="watermarklayer"></rect> <g data-v-0dd9719b="" fill="#333" class="icon-text-wrapper icon-svg-group iconsvg" transform="translate(50.290000915527344,91.58758926391602)"><g class="iconsvg-imagesvg" transform="translate(0,0)"><g><rect fill="#333" fill-opacity="0" stroke-width="2" x="0" y="0" width="60" height="66.82481873767918" class="image-rect"></rect> <svg x="0" y="0" width="60" height="66.82481873767918" filtersec="colorsb7162247809" class="image-svg-svg primary" style="overflow: visible;"><svg xmlns="http://www.w3.org/2000/svg" viewBox="0 -0.0028373277746140957 89.81000518798828 100.02556610107422"><title>资源 134</title><path d="M64.35 47.87c-.58 0-1.17 0-1.74.05.34.73.66 1.46 1 2.2a64.86 64.86 0 0 1 5.14 25.46 65.77 65.77 0 0 1-1.34 13.26L84.44 79a11.89 11.89 0 0 0 5.37-9.28v-10a33.48 33.48 0 0 0-25.46-11.85zM21.49 69a9.3 9.3 0 0 1 9.3-9.31 9.07 9.07 0 0 1 1.66.15 39.44 39.44 0 0 1 4.73-5.73 38.15 38.15 0 0 1 15.09-9.32 58 58 0 0 0-41.94-26.64L5.38 21A11.9 11.9 0 0 0 0 30.28v39.44A11.9 11.9 0 0 0 5.38 79l22 12.68a38.86 38.86 0 0 1-1.19-14.63 9.3 9.3 0 0 1-4.7-8.05z" fill="#275cde"></path><path d="M84.44 21L50.28 1.28a11.86 11.86 0 0 0-10.73 0L20.29 12.4a64 64 0 0 1 8.49 2.92 65.23 65.23 0 0 1 20.79 14 65.61 65.61 0 0 1 10.52 13.76 37.62 37.62 0 0 1 4.26-.24 38.33 38.33 0 0 1 25.46 9.64v-22.2A11.92 11.92 0 0 0 84.44 21z" fill="#0a2183"></path><path d="M37 62.08a9.31 9.31 0 0 1-5.95 16.2c-.08 1-.13 2-.13 3a33.2 33.2 0 0 0 3.26 14.39l5.33 3.07a11.84 11.84 0 0 0 10.72 0l7.87-4.54a57.76 57.76 0 0 0-3.27-44.94A33.46 33.46 0 0 0 37 62.08z" fill="#01cfff"></path></svg></svg> <!----></g></g> <g transform="translate(67,14.887409210205078)"><g data-gra="path-name" fill-rule="" class="tp-name iconsvg-namesvg"><g transform="scale(1)"><g><path d="M24.77-36L34.49-36 34.49-14.33Q34.49-7.26 30.49-3.39 26.49 0.49 18.96 0.49L18.96 0.49Q11.6 0.49 7.64-3.27 3.69-7.04 3.69-14.11L3.69-14.11 3.69-36 13.47-36 13.47-14.87Q13.47-11.05 14.9-9.33 16.32-7.61 19.11-7.61L19.11-7.61Q22.08-7.61 23.43-9.32 24.77-11.03 24.77-14.92L24.77-14.92 24.77-36ZM76.32-36L76.32 0 63.57 0 50.42-25.36 50.2-25.36Q50.67-19.38 50.67-16.22L50.67-16.22 50.67 0 42.05 0 42.05-36 54.76-36 67.85-10.98 68-10.98Q67.66-16.42 67.66-19.72L67.66-19.72 67.66-36 76.32-36ZM93.88 0L84.1 0 84.1-36 93.88-36 93.88 0ZM135.34-18.05L135.34-18.05Q135.34-8.96 130.88-4.23 126.43 0.49 117.83 0.49L117.83 0.49Q109.36 0.49 104.85-4.26 100.33-9.01 100.33-18.1L100.33-18.1Q100.33-27.08 104.82-31.82 109.31-36.56 117.88-36.56L117.88-36.56Q126.48-36.56 130.91-31.86 135.34-27.16 135.34-18.05ZM110.57-18.05L110.57-18.05Q110.57-7.61 117.83-7.61L117.83-7.61Q121.53-7.61 123.31-10.14 125.1-12.68 125.1-18.05L125.1-18.05Q125.1-23.44 123.29-26.01 121.48-28.58 117.88-28.58L117.88-28.58Q110.57-28.58 110.57-18.05ZM176.11-36L176.11 0 163.36 0 150.21-25.36 149.99-25.36Q150.46-19.38 150.46-16.22L150.46-16.22 150.46 0 141.84 0 141.84-36 154.54-36 167.64-10.98 167.79-10.98Q167.44-16.42 167.44-19.72L167.44-19.72 167.44-36 176.11-36Z" transform="translate(-3.690000057220459, 36.560001373291016)"></path></g> <!----> <!----> <!----> <!----> <!----> <!----> <!----></g></g> <!----></g></g><defs v-gra="od"></defs></svg>